<svg width="61" height="17" viewBox="0 0 61 17" fill="none" xmlns="http://www.w3.org/2000/svg">
<path fill-rule="evenodd" clip-rule="evenodd" d="M29.5604 14.2115C28.68 13.3015 27.844 12.4359 27.844 10.7491V3.45439C27.844 3.26943 27.696 3.12147 27.5037 3.12147H25.336H25.188C25.0031 3.12147 24.8551 3.26943 24.8551 3.45439V3.8539C24.8551 3.98706 24.7145 4.06845 24.5962 4.00186C24.5592 3.97967 24.5296 3.96487 24.5148 3.95007C23.6122 3.43219 22.5912 2.84033 21.2891 2.84033C17.1683 2.84033 14.4531 5.9772 14.4531 9.76512C14.4531 13.553 17.1683 16.5863 21.2891 16.5863C23.0943 16.5863 24.4926 15.7947 25.7281 14.8625C25.8687 14.759 26.061 14.7959 26.1868 14.9143C26.3791 15.1067 26.6011 15.3508 26.823 15.6024C27.0894 15.9057 27.3779 16.2312 27.659 16.4975C27.7922 16.6011 27.9698 16.6085 28.1103 16.468L29.8341 14.9513C29.9747 14.8329 29.9525 14.6184 29.8341 14.4926C29.7454 14.4038 29.6492 14.3077 29.5604 14.2115ZM24.8625 11.8144C24.8625 11.9032 24.8255 11.992 24.7589 12.0512C23.8119 12.9612 22.7762 13.5826 21.2891 13.5826C19.0696 13.5826 17.5308 11.9254 17.5308 9.77251C17.5308 7.61962 19.0696 5.85883 21.2891 5.85883C22.8132 5.85883 23.775 6.52467 24.7367 7.31629C24.8107 7.38287 24.8551 7.47905 24.8551 7.57523V11.8144H24.8625Z" fill="#18161A"/>
<path fill-rule="evenodd" clip-rule="evenodd" d="M60.4482 14.9365C60.3668 14.2707 59.8267 13.7306 59.1609 13.6492C58.1843 13.5235 57.3631 14.3447 57.4889 15.3213C57.5703 15.9871 58.1103 16.5272 58.7762 16.6086C59.7528 16.7343 60.574 15.9131 60.4482 14.9365Z" fill="#18161A"/>
<path fill-rule="evenodd" clip-rule="evenodd" d="M7.38039 5.82187C8.74907 5.82187 9.94019 6.59129 10.5912 7.73802C10.68 7.88598 10.865 7.94517 11.0203 7.87859L13.2102 6.87242C13.3878 6.79104 13.4544 6.58389 13.3656 6.40633C12.2115 4.25343 9.96238 2.78857 7.38039 2.78857C3.62206 2.78857 0.573975 5.88105 0.573975 9.69856C0.573975 13.5161 3.62206 16.6086 7.38039 16.6086C9.96238 16.6086 12.2041 15.1511 13.3582 13.0056C13.447 12.8354 13.3804 12.6209 13.2028 12.5395L11.0203 11.5555C10.865 11.4889 10.68 11.5481 10.5912 11.6961C9.94019 12.8428 8.74907 13.6196 7.38039 13.6196C5.31627 13.6196 3.65166 11.8737 3.65166 9.72076C3.64426 7.56046 5.31627 5.81447 7.38039 5.82187Z" fill="#18161A"/>
<path fill-rule="evenodd" clip-rule="evenodd" d="M50.209 2.81067C46.0586 2.81067 43.3878 6.01412 43.3878 9.69106C43.3878 13.6269 46.0808 16.6232 50.3348 16.6232C53.0129 16.6232 54.7367 15.7133 56.1202 14.0634C56.246 13.9155 56.2164 13.6861 56.061 13.5752L54.2928 12.2731C54.1523 12.1695 53.9673 12.1917 53.8489 12.3175C53.0277 13.2422 51.881 13.7527 50.5123 13.7527C48.7515 13.7527 47.2497 12.9167 46.6948 11.3113C46.6208 11.0893 46.7762 10.86 47.0129 10.86H56.3052C56.4753 10.86 56.6085 10.7342 56.6381 10.5715C56.6899 10.2015 56.7047 9.72806 56.7047 9.42473C56.7121 5.72559 54.278 2.81067 50.209 2.81067ZM53.3015 8.46295H46.902C46.7614 8.46295 46.6578 8.32238 46.7022 8.18921C47.2053 6.59119 48.4926 5.6738 50.3348 5.6738C51.992 5.6738 53.1535 6.45802 53.5086 8.21141C53.5308 8.34458 53.4346 8.46295 53.3015 8.46295Z" fill="#18161A"/>
<path fill-rule="evenodd" clip-rule="evenodd" d="M42.3668 13.7158H42.2559C41.6122 13.7158 41.1091 13.4716 40.6356 12.8428L38.135 9.49875C38.0314 9.35818 38.0536 9.15843 38.1868 9.04006L42.4408 5.45189C42.5814 5.33352 42.6036 5.11157 42.4778 4.97101L40.9094 3.19542C40.791 3.05485 40.5764 3.04746 40.4433 3.16583L34.6282 8.23365C34.4137 8.426 34.0734 8.27064 34.0734 7.9821V0.761389C34.0734 0.576432 33.9254 0.428467 33.7404 0.428467H31.3212C31.1362 0.428467 30.9883 0.576432 30.9883 0.761389V16.2608C30.9883 16.4457 31.1362 16.5937 31.3212 16.5937H33.7404C33.9254 16.5937 34.0734 16.4457 34.0734 16.2608V12.6356C34.0734 12.5394 34.1178 12.4433 34.1917 12.3767L35.3459 11.4149C35.4938 11.2891 35.7084 11.3187 35.8268 11.4667L38.3644 14.8107C39.2817 16.0462 40.1399 16.6233 41.5308 16.6233H42.3742C42.5592 16.6233 42.7071 16.4753 42.7071 16.2904V14.0487C42.6997 13.8711 42.5518 13.7158 42.3668 13.7158Z" fill="#18161A"/>
</svg>